<?xml version="1.0" encoding="UTF-8" standalone="no"?>
<svg
   xmlns:dc="http://purl.org/dc/elements/1.1/"
   xmlns:cc="http://creativecommons.org/ns#"
   xmlns:rdf="http://www.w3.org/1999/02/22-rdf-syntax-ns#"
   xmlns:svg="http://www.w3.org/2000/svg"
   xmlns="http://www.w3.org/2000/svg"
   version="1.1"
   id="svg2"
   viewBox="0 0 147.72646 154.5536"
   height="43.618462mm"
   width="41.691689mm">
  <defs
     id="defs4" />
  <metadata
     id="metadata7">
    <rdf:RDF>
      <cc:Work
         rdf:about="">
        <dc:format>image/svg+xml</dc:format>
        <dc:type
           rdf:resource="http://purl.org/dc/dcmitype/StillImage" />
        <dc:title></dc:title>
      </cc:Work>
    </rdf:RDF>
  </metadata>
  <g
     transform="translate(-97.816207,-107.14265)"
     id="layer1">
    <path
       id="path3434"
       transform="translate(97.816207,107.14265)"
       d="M 53.810547 0 C 52.301667 0 50.792083 0.50377 49.283203 0.90625 L 49.373047 0.60351562 C 38.100817 -3.0188344 37.389939 10.767369 33.662109 17.005859 C 32.241989 19.320139 30.112853 21.332341 29.757812 23.244141 C 29.491542 25.055311 30.378692 26.766012 30.201172 28.476562 C 29.668622 33.809462 26.118461 43.36702 23.988281 46.6875 C 22.656911 48.69991 20.703331 49.707214 20.082031 52.021484 C 19.549491 53.631424 20.437276 55.945554 20.259766 58.058594 C 19.815976 62.787774 16.70896 71.742534 14.3125 76.371094 C 13.42493 78.182264 11.738722 79.590163 11.294922 81.501953 C 10.851132 83.212513 11.738722 85.428054 11.294922 87.339844 C 10.318582 92.572144 7.3014019 100.72091 4.6386719 105.75195 C 3.2185519 108.46871 1.35504 110.17885 1 112.59375 C 0.82249 113.8012 1.62001 115.11076 1.53125 116.7207 C 1.44245 119.1356 1.0876662 121.14774 0.91015625 123.16016 C -0.33246375 126.98375 -0.33223938 131.41151 1.0878906 135.93945 C 4.3719276 146.40402 14.046319 154.55273 23.099609 154.55273 L 105.02344 154.55273 C 112.65661 154.55273 120.46855 147.91215 122.6875 139.35938 L 147.0957 48.197266 C 148.33831 43.568696 147.717 38.839147 145.49805 35.216797 C 144.16668 33.204377 142.30119 31.796205 140.25977 30.890625 C 140.34857 32.701795 140.34901 34.715163 139.81641 36.626953 L 113.18945 135.93945 C 112.21311 139.5618 108.39732 141.67383 105.11328 141.67383 L 23.189453 141.67383 C 18.307763 141.67383 12.183353 140.46687 10.408203 134.63086 C 9.6981331 132.41721 9.7860838 131.51214 10.496094 130.30469 C 11.294914 129.09724 12.715281 128.79492 13.869141 128.79492 L 91 128.79492 C 102.27223 128.79492 104.58034 125.37451 108.75195 109.87891 L 133.07031 18.714844 C 134.31291 13.985654 133.78035 9.2571156 131.47266 5.6347656 C 129.25371 2.1130356 125.52708 0 121.35547 0 L 53.810547 0 z M 81.871094 19.683594 L 86.933594 44.693359 L 110.01758 51.462891 L 88.242188 67.744141 L 86.111328 94.279297 L 67.591797 79.332031 L 43.189453 88.962891 L 53.517578 63.443359 L 40.568359 42.859375 L 65.472656 42.035156 L 81.871094 19.683594 z "
       style="font-style:normal;font-variant:normal;font-weight:normal;font-stretch:normal;font-size:medium;line-height:125%;font-family:FontAwesome;-inkscape-font-specification:FontAwesome;letter-spacing:0px;word-spacing:0px;fill:#424242;fill-opacity:1;stroke:none;stroke-width:1px;stroke-linecap:butt;stroke-linejoin:miter;stroke-opacity:1" />
    <flowRoot
       style="font-style:normal;font-weight:normal;font-size:50px;line-height:125%;font-family:sans-serif;letter-spacing:0px;word-spacing:0px;fill:#000000;fill-opacity:1;stroke:none;stroke-width:1px;stroke-linecap:butt;stroke-linejoin:miter;stroke-opacity:1"
       id="flowRoot3763"
       xml:space="preserve"><flowRegion
         id="flowRegion3765"><rect
           y="194.73506"
           x="252.54237"
           height="190.67796"
           width="56.779659"
           id="rect3767" /></flowRegion><flowPara
         id="flowPara3769"></flowPara></flowRoot>  </g>
</svg>
