<?xml version="1.0" encoding="UTF-8" standalone="no"?>
<svg
   xmlns:dc="http://purl.org/dc/elements/1.1/"
   xmlns:cc="http://creativecommons.org/ns#"
   xmlns:rdf="http://www.w3.org/1999/02/22-rdf-syntax-ns#"
   xmlns:svg="http://www.w3.org/2000/svg"
   xmlns="http://www.w3.org/2000/svg"
   xmlns:sodipodi="http://sodipodi.sourceforge.net/DTD/sodipodi-0.dtd"
   xmlns:inkscape="http://www.inkscape.org/namespaces/inkscape"
   viewBox="0 0 415.40637 348.17127"
   height="348.17126"
   width="415.40637"
   xml:space="preserve"
   version="1.1"
   id="svg2"
   inkscape:version="0.91 r13725"
   sodipodi:docname="2015-07-01-album_data.svg"><sodipodi:namedview
     pagecolor="#ffffff"
     bordercolor="#666666"
     borderopacity="1"
     objecttolerance="10"
     gridtolerance="10"
     guidetolerance="10"
     inkscape:pageopacity="0"
     inkscape:pageshadow="2"
     inkscape:window-width="640"
     inkscape:window-height="480"
     id="namedview334"
     showgrid="false"
     fit-margin-top="0"
     fit-margin-left="0"
     fit-margin-right="0"
     fit-margin-bottom="0"
     inkscape:zoom="0.5"
     inkscape:cx="173.49679"
     inkscape:cy="81.405963"
     inkscape:window-x="0"
     inkscape:window-y="0"
     inkscape:window-maximized="0"
     inkscape:current-layer="svg2" /><metadata
     id="metadata8"><rdf:RDF><cc:Work
         rdf:about=""><dc:format>image/svg+xml</dc:format><dc:type
           rdf:resource="http://purl.org/dc/dcmitype/StillImage" /><dc:title></dc:title></cc:Work></rdf:RDF></metadata><defs
     id="defs6"><clipPath
       id="clipPath1054"
       clipPathUnits="userSpaceOnUse"><path
         id="path1056"
         d="m 205.714,412.0083 334.286,0 0,289.5914 -334.286,0 0,-289.5914 z"
         inkscape:connector-curvature="0" /></clipPath><clipPath
       id="clipPath1078"
       clipPathUnits="userSpaceOnUse"><path
         id="path1080"
         d="m 205.714,448.5524 0,240.6531 19.2984,0 0,-240.6531 -19.2984,0 z"
         inkscape:connector-curvature="0" /></clipPath><clipPath
       id="clipPath1084"
       clipPathUnits="userSpaceOnUse"><path
         id="path1086"
         d="m 205.714,412.0083 334.286,0 0,289.5914 -334.286,0 0,-289.5914 z"
         inkscape:connector-curvature="0" /></clipPath><clipPath
       id="clipPath1098"
       clipPathUnits="userSpaceOnUse"><path
         id="path1100"
         d="m 249.8894,441.595 8.17411,0 0,13.91485 -8.17411,0 0,-13.91485 z"
         inkscape:connector-curvature="0" /></clipPath><clipPath
       id="clipPath1112"
       clipPathUnits="userSpaceOnUse"><path
         id="path1114"
         d="m 224.3564,501.7583 33.7071,0 0,13.91485 -33.7071,0 0,-13.91485 z"
         inkscape:connector-curvature="0" /></clipPath><clipPath
       id="clipPath1126"
       clipPathUnits="userSpaceOnUse"><path
         id="path1128"
         d="m 224.5024,561.9215 33.56108,0 0,13.91485 -33.56108,0 0,-13.91485 z"
         inkscape:connector-curvature="0" /></clipPath><clipPath
       id="clipPath1140"
       clipPathUnits="userSpaceOnUse"><path
         id="path1142"
         d="m 224.3668,622.0848 33.69667,0 0,13.91485 -33.69667,0 0,-13.91485 z"
         inkscape:connector-curvature="0" /></clipPath><clipPath
       id="clipPath1154"
       clipPathUnits="userSpaceOnUse"><path
         id="path1156"
         d="m 224.2521,682.2481 33.8114,0 0,13.91485 -33.8114,0 0,-13.91485 z"
         inkscape:connector-curvature="0" /></clipPath><clipPath
       id="clipPath1168"
       clipPathUnits="userSpaceOnUse"><path
         id="path1170"
         d="m 205.714,412.0083 334.286,0 0,289.5914 -334.286,0 0,-289.5914 z"
         inkscape:connector-curvature="0" /></clipPath><clipPath
       id="clipPath1180"
       clipPathUnits="userSpaceOnUse"><path
         id="path1182"
         d="m 267.097,412.0083 272.5228,0 0,19.29837 -272.5228,0 0,-19.29837 z"
         inkscape:connector-curvature="0" /></clipPath><clipPath
       id="clipPath1194"
       clipPathUnits="userSpaceOnUse"><path
         id="path1196"
         d="m 269.4986,430.5463 8.1741,0 0,13.91485 -8.1741,0 0,-13.91485 z"
         inkscape:connector-curvature="0" /></clipPath><clipPath
       id="clipPath1208"
       clipPathUnits="userSpaceOnUse"><path
         id="path1210"
         d="m 283.472,430.5463 6.18195,0 0,13.91485 -6.18195,0 0,-13.91485 z"
         inkscape:connector-curvature="0" /></clipPath><clipPath
       id="clipPath1222"
       clipPathUnits="userSpaceOnUse"><path
         id="path1224"
         d="m 295.5731,430.5463 7.93421,0 0,13.91485 -7.93421,0 0,-13.91485 z"
         inkscape:connector-curvature="0" /></clipPath><clipPath
       id="clipPath1236"
       clipPathUnits="userSpaceOnUse"><path
         id="path1238"
         d="m 308.6286,430.5463 7.77776,0 0,13.91485 -7.77776,0 0,-13.91485 z"
         inkscape:connector-curvature="0" /></clipPath><clipPath
       id="clipPath1250"
       clipPathUnits="userSpaceOnUse"><path
         id="path1252"
         d="m 321.6007,430.5463 7.78819,0 0,13.91485 -7.78819,0 0,-13.91485 z"
         inkscape:connector-curvature="0" /></clipPath><clipPath
       id="clipPath1264"
       clipPathUnits="userSpaceOnUse"><path
         id="path1266"
         d="m 334.5623,430.5463 7.81948,0 0,13.91485 -7.81948,0 0,-13.91485 z"
         inkscape:connector-curvature="0" /></clipPath><clipPath
       id="clipPath1278"
       clipPathUnits="userSpaceOnUse"><path
         id="path1280"
         d="m 347.4874,430.5463 7.92378,0 0,13.91485 -7.92378,0 0,-13.91485 z"
         inkscape:connector-curvature="0" /></clipPath><clipPath
       id="clipPath1292"
       clipPathUnits="userSpaceOnUse"><path
         id="path1294"
         d="m 360.7359,430.5463 7.38141,0 0,13.91485 -7.38141,0 0,-13.91485 z"
         inkscape:connector-curvature="0" /></clipPath><clipPath
       id="clipPath1306"
       clipPathUnits="userSpaceOnUse"><path
         id="path1308"
         d="m 373.3846,430.5463 8.03851,0 0,13.91485 -8.03851,0 0,-13.91485 z"
         inkscape:connector-curvature="0" /></clipPath><clipPath
       id="clipPath1320"
       clipPathUnits="userSpaceOnUse"><path
         id="path1322"
         d="m 386.414,430.5463 7.93421,0 0,13.91485 -7.93421,0 0,-13.91485 z"
         inkscape:connector-curvature="0" /></clipPath><clipPath
       id="clipPath1334"
       clipPathUnits="userSpaceOnUse"><path
         id="path1336"
         d="m 397.3209,430.5463 12.07498,0 0,13.91485 -12.07498,0 0,-13.91485 z"
         inkscape:connector-curvature="0" /></clipPath><clipPath
       id="clipPath1348"
       clipPathUnits="userSpaceOnUse"><path
         id="path1350"
         d="m 411.2943,430.5463 10.08282,0 0,13.91485 -10.08282,0 0,-13.91485 z"
         inkscape:connector-curvature="0" /></clipPath><clipPath
       id="clipPath1362"
       clipPathUnits="userSpaceOnUse"><path
         id="path1364"
         d="m 423.3954,430.5463 11.83509,0 0,13.91485 -11.83509,0 0,-13.91485 z"
         inkscape:connector-curvature="0" /></clipPath><clipPath
       id="clipPath1376"
       clipPathUnits="userSpaceOnUse"><path
         id="path1378"
         d="m 436.4509,430.5463 11.67863,0 0,13.91485 -11.67863,0 0,-13.91485 z"
         inkscape:connector-curvature="0" /></clipPath><clipPath
       id="clipPath1390"
       clipPathUnits="userSpaceOnUse"><path
         id="path1392"
         d="m 449.423,430.5463 11.68906,0 0,13.91485 -11.68906,0 0,-13.91485 z"
         inkscape:connector-curvature="0" /></clipPath><clipPath
       id="clipPath1404"
       clipPathUnits="userSpaceOnUse"><path
         id="path1406"
         d="m 462.3846,430.5463 11.72035,0 0,13.91485 -11.72035,0 0,-13.91485 z"
         inkscape:connector-curvature="0" /></clipPath><clipPath
       id="clipPath1418"
       clipPathUnits="userSpaceOnUse"><path
         id="path1420"
         d="m 475.3098,430.5463 11.82466,0 0,13.91485 -11.82466,0 0,-13.91485 z"
         inkscape:connector-curvature="0" /></clipPath><clipPath
       id="clipPath1432"
       clipPathUnits="userSpaceOnUse"><path
         id="path1434"
         d="m 488.5582,430.5463 11.28229,0 0,13.91485 -11.28229,0 0,-13.91485 z"
         inkscape:connector-curvature="0" /></clipPath><clipPath
       id="clipPath1446"
       clipPathUnits="userSpaceOnUse"><path
         id="path1448"
         d="m 501.2069,430.5463 11.93939,0 0,13.91485 -11.93939,0 0,-13.91485 z"
         inkscape:connector-curvature="0" /></clipPath><clipPath
       id="clipPath1460"
       clipPathUnits="userSpaceOnUse"><path
         id="path1462"
         d="m 514.2364,430.5463 11.83509,0 0,13.91485 -11.83509,0 0,-13.91485 z"
         inkscape:connector-curvature="0" /></clipPath><clipPath
       id="clipPath1474"
       clipPathUnits="userSpaceOnUse"><path
         id="path1476"
         d="m 526.2176,430.5463 13.78243,0 0,13.91485 -13.78243,0 0,-13.91485 z"
         inkscape:connector-curvature="0" /></clipPath><clipPath
       id="clipPath1488"
       clipPathUnits="userSpaceOnUse"><path
         id="path1490"
         d="m 267.097,448.5524 272.5228,0 0,240.6531 -272.5228,0 0,-240.6531 z"
         inkscape:connector-curvature="0" /></clipPath><clipPath
       id="clipPath1498"
       clipPathUnits="userSpaceOnUse"><path
         id="path1500"
         d="m 267.097,448.5524 272.5228,0 0,240.6531 -272.5228,0 0,-240.6531 z"
         inkscape:connector-curvature="0" /></clipPath><clipPath
       id="clipPath1508"
       clipPathUnits="userSpaceOnUse"><path
         id="path1510"
         d="m 267.097,448.5524 272.5228,0 0,240.6531 -272.5228,0 0,-240.6531 z"
         inkscape:connector-curvature="0" /></clipPath><clipPath
       id="clipPath1518"
       clipPathUnits="userSpaceOnUse"><path
         id="path1520"
         d="m 267.097,448.5524 272.5228,0 0,240.6531 -272.5228,0 0,-240.6531 z"
         inkscape:connector-curvature="0" /></clipPath><clipPath
       id="clipPath1528"
       clipPathUnits="userSpaceOnUse"><path
         id="path1530"
         d="m 267.097,448.5524 272.5228,0 0,240.6531 -272.5228,0 0,-240.6531 z"
         inkscape:connector-curvature="0" /></clipPath><clipPath
       id="clipPath1538"
       clipPathUnits="userSpaceOnUse"><path
         id="path1540"
         d="m 267.097,448.5524 272.5228,0 0,240.6531 -272.5228,0 0,-240.6531 z"
         inkscape:connector-curvature="0" /></clipPath><clipPath
       id="clipPath1548"
       clipPathUnits="userSpaceOnUse"><path
         id="path1550"
         d="m 267.097,448.5524 272.5228,0 0,240.6531 -272.5228,0 0,-240.6531 z"
         inkscape:connector-curvature="0" /></clipPath><clipPath
       id="clipPath1558"
       clipPathUnits="userSpaceOnUse"><path
         id="path1560"
         d="m 267.097,448.5524 272.5228,0 0,240.6531 -272.5228,0 0,-240.6531 z"
         inkscape:connector-curvature="0" /></clipPath><clipPath
       id="clipPath1568"
       clipPathUnits="userSpaceOnUse"><path
         id="path1570"
         d="m 267.097,448.5524 272.5228,0 0,240.6531 -272.5228,0 0,-240.6531 z"
         inkscape:connector-curvature="0" /></clipPath><clipPath
       id="clipPath1578"
       clipPathUnits="userSpaceOnUse"><path
         id="path1580"
         d="m 267.097,448.5524 272.5228,0 0,240.6531 -272.5228,0 0,-240.6531 z"
         inkscape:connector-curvature="0" /></clipPath><clipPath
       id="clipPath1588"
       clipPathUnits="userSpaceOnUse"><path
         id="path1590"
         d="m 267.097,448.5524 272.5228,0 0,240.6531 -272.5228,0 0,-240.6531 z"
         inkscape:connector-curvature="0" /></clipPath><clipPath
       id="clipPath1598"
       clipPathUnits="userSpaceOnUse"><path
         id="path1600"
         d="m 267.097,448.5524 272.5228,0 0,240.6531 -272.5228,0 0,-240.6531 z"
         inkscape:connector-curvature="0" /></clipPath><clipPath
       id="clipPath1608"
       clipPathUnits="userSpaceOnUse"><path
         id="path1610"
         d="m 267.097,448.5524 272.5228,0 0,240.6531 -272.5228,0 0,-240.6531 z"
         inkscape:connector-curvature="0" /></clipPath><clipPath
       id="clipPath1618"
       clipPathUnits="userSpaceOnUse"><path
         id="path1620"
         d="m 267.097,448.5524 272.5228,0 0,240.6531 -272.5228,0 0,-240.6531 z"
         inkscape:connector-curvature="0" /></clipPath><clipPath
       id="clipPath1628"
       clipPathUnits="userSpaceOnUse"><path
         id="path1630"
         d="m 267.097,448.5524 272.5228,0 0,240.6531 -272.5228,0 0,-240.6531 z"
         inkscape:connector-curvature="0" /></clipPath><clipPath
       id="clipPath1638"
       clipPathUnits="userSpaceOnUse"><path
         id="path1640"
         d="m 267.097,448.5524 272.5228,0 0,240.6531 -272.5228,0 0,-240.6531 z"
         inkscape:connector-curvature="0" /></clipPath><clipPath
       id="clipPath1648"
       clipPathUnits="userSpaceOnUse"><path
         id="path1650"
         d="m 267.097,448.5524 272.5228,0 0,240.6531 -272.5228,0 0,-240.6531 z"
         inkscape:connector-curvature="0" /></clipPath><clipPath
       id="clipPath1658"
       clipPathUnits="userSpaceOnUse"><path
         id="path1660"
         d="m 267.097,448.5524 272.5228,0 0,240.6531 -272.5228,0 0,-240.6531 z"
         inkscape:connector-curvature="0" /></clipPath><clipPath
       id="clipPath1668"
       clipPathUnits="userSpaceOnUse"><path
         id="path1670"
         d="m 267.097,448.5524 272.5228,0 0,240.6531 -272.5228,0 0,-240.6531 z"
         inkscape:connector-curvature="0" /></clipPath><clipPath
       id="clipPath1678"
       clipPathUnits="userSpaceOnUse"><path
         id="path1680"
         d="m 267.097,448.5524 272.5228,0 0,240.6531 -272.5228,0 0,-240.6531 z"
         inkscape:connector-curvature="0" /></clipPath><clipPath
       id="clipPath1688"
       clipPathUnits="userSpaceOnUse"><path
         id="path1690"
         d="m 299.3517,17.95613 13.38436,0 0,21.23678 -13.38436,0 0,-21.23678 z"
         inkscape:connector-curvature="0" /></clipPath></defs><g
     id="g12"
     transform="matrix(1.25,0,0,-1.25,-259.59359,866.2507)" /><g
     id="g1050"
     transform="matrix(1.25,0,0,-1.25,-259.59359,866.2507)"><g
       id="g1052"
       clip-path="url(#clipPath1054)"><g
         id="g1058"
         transform="matrix(0.7603574,0,0,-0.7603574,205.714,701.5997)"><path
           inkscape:connector-curvature="0"
           d="m 80.6015,253.9591 359.0417,0"
           style="fill:none;stroke:#b8b8b8;stroke-width:0.25;stroke-linecap:butt;stroke-linejoin:miter;stroke-miterlimit:4;stroke-dasharray:none;stroke-opacity:1"
           id="path1060" /></g><g
         id="g1062"
         transform="matrix(0.7603574,0,0,-0.7603574,205.714,701.5997)"><path
           inkscape:connector-curvature="0"
           d="m 80.6015,175.0488 359.0417,0"
           style="fill:none;stroke:#b8b8b8;stroke-width:0.25;stroke-linecap:butt;stroke-linejoin:miter;stroke-miterlimit:4;stroke-dasharray:none;stroke-opacity:1"
           id="path1064" /></g><g
         id="g1066"
         transform="matrix(0.7603574,0,0,-0.7603574,205.714,701.5997)"><path
           inkscape:connector-curvature="0"
           d="m 80.6015,94.82338 359.0417,0"
           style="fill:none;stroke:#b8b8b8;stroke-width:0.25;stroke-linecap:butt;stroke-linejoin:miter;stroke-miterlimit:4;stroke-dasharray:none;stroke-opacity:1"
           id="path1068" /></g><g
         id="g1070"
         transform="matrix(0.7603574,0,0,-0.7603574,205.714,701.5997)"><path
           inkscape:connector-curvature="0"
           d="m 80.6015,15.91312 359.0417,0"
           style="fill:none;stroke:#b8b8b8;stroke-width:0.25;stroke-linecap:butt;stroke-linejoin:miter;stroke-miterlimit:4;stroke-dasharray:none;stroke-opacity:1"
           id="path1072" /></g></g></g><g
     id="g1074"
     transform="matrix(1.25,0,0,-1.25,-259.59359,866.2507)"><g
       id="g1076"
       clip-path="url(#clipPath1078)"><g
         id="g1082"
         clip-path="url(#clipPath1084)"><g
           id="g1088"
           transform="matrix(0,0.7603574,-0.7603574,0,216.2568,453.4245)"><text
             transform="scale(1,-1)"
             style="font-variant:normal;font-size:15.08917046px;font-family:'Good OT';-inkscape-font-specification:GoodOT-News;writing-mode:lr-tb;fill:#000000;fill-opacity:1;fill-rule:nonzero;stroke:none"
             id="text1090"><tspan
               x="0 9.4609098 17.156385 28.458174 36.078205 42.958866 48.255165 51.770943 59.043922 63.82719 67.342964 76.487 80.123489 87.743523 95.439003 106.74079 113.01788 116.53366 127.38277 130.92873 135.93834 143.69417 147.20995 154.57346 158.11942 163.12901 166.7655 173.64616 177.16194 184.25386 189.55016 196.50626 202.96443 210.46375 213.97952 220.87527 225.88487 229.40065 234.41026 242.16609 245.71205 251.98914 255.50491 263.06458 270.33755 276.61465 280.16061 285.17023 288.71619 295.98917"
               y="0"
               id="tspan1092">Number of Albums with Title Track at this position</tspan></text>
</g></g></g></g><g
     id="g1094"
     transform="matrix(1.25,0,0,-1.25,-259.59359,866.2507)"><g
       id="g1096"
       clip-path="url(#clipPath1098)"><g
         id="g1102"
         transform="matrix(0.7603574,0,0,0.7603574,251.0299,444.6813)"><text
           transform="scale(1,-1)"
           style="font-variant:normal;font-size:13.71743011px;font-family:'Good OT';-inkscape-font-specification:GoodOT-News;writing-mode:lr-tb;fill:#000000;fill-opacity:1;fill-rule:nonzero;stroke:none"
           id="text1104"><tspan
             x="0"
             y="0"
             id="tspan1106">0</tspan></text>
</g></g></g><g
     id="g1108"
     transform="matrix(1.25,0,0,-1.25,-259.59359,866.2507)"><g
       id="g1110"
       clip-path="url(#clipPath1112)"><g
         id="g1116"
         transform="matrix(0.7603574,0,0,0.7603574,225.4969,504.8445)"><text
           transform="scale(1,-1)"
           style="font-variant:normal;font-size:13.71743011px;font-family:'Good OT';-inkscape-font-specification:GoodOT-News;writing-mode:lr-tb;fill:#000000;fill-opacity:1;fill-rule:nonzero;stroke:none"
           id="text1118"><tspan
             x="0 7.4348469 15.185195 18.079573 25.82992 33.580269"
             y="0"
             id="tspan1120">20,000</tspan></text>
</g></g></g><g
     id="g1122"
     transform="matrix(1.25,0,0,-1.25,-259.59359,866.2507)"><g
       id="g1124"
       clip-path="url(#clipPath1126)"><g
         id="g1130"
         transform="matrix(0.7603574,0,0,0.7603574,225.6429,565.0078)"><text
           transform="scale(1,-1)"
           style="font-variant:normal;font-size:13.71743011px;font-family:'Good OT';-inkscape-font-specification:GoodOT-News;writing-mode:lr-tb;fill:#000000;fill-opacity:1;fill-rule:nonzero;stroke:none"
           id="text1132"><tspan
             x="0 7.2428031 14.993151 17.887529 25.637877 33.388226"
             y="0"
             id="tspan1134">40,000</tspan></text>
</g></g></g><g
     id="g1136"
     transform="matrix(1.25,0,0,-1.25,-259.59359,866.2507)"><g
       id="g1138"
       clip-path="url(#clipPath1140)"><g
         id="g1144"
         transform="matrix(0.7603574,0,0,0.7603574,225.5073,625.1711)"><text
           transform="scale(1,-1)"
           style="font-variant:normal;font-size:13.71743011px;font-family:'Good OT';-inkscape-font-specification:GoodOT-News;writing-mode:lr-tb;fill:#000000;fill-opacity:1;fill-rule:nonzero;stroke:none"
           id="text1146"><tspan
             x="0 7.4211297 15.171477 18.065855 25.816204 33.566551"
             y="0"
             id="tspan1148">60,000</tspan></text>
</g></g></g><g
     id="g1150"
     transform="matrix(1.25,0,0,-1.25,-259.59359,866.2507)"><g
       id="g1152"
       clip-path="url(#clipPath1154)"><g
         id="g1158"
         transform="matrix(0.7603574,0,0,0.7603574,225.3926,685.3344)"><text
           transform="scale(1,-1)"
           style="font-variant:normal;font-size:13.71743011px;font-family:'Good OT';-inkscape-font-specification:GoodOT-News;writing-mode:lr-tb;fill:#000000;fill-opacity:1;fill-rule:nonzero;stroke:none"
           id="text1160"><tspan
             x="0 7.5720215 15.32237 18.216747 25.967094 33.717442"
             y="0"
             id="tspan1162">80,000</tspan></text>
</g></g></g><g
     id="g1164"
     transform="matrix(1.25,0,0,-1.25,-259.59359,866.2507)"><g
       id="g1166"
       clip-path="url(#clipPath1168)"><g
         id="g1172"
         transform="matrix(0.7603574,0,0,-0.7603574,205.714,701.5997)"><path
           inkscape:connector-curvature="0"
           d="m 81.25909,332.8693 357.72651,0"
           style="fill:none;stroke:#000000;stroke-width:1;stroke-linecap:square;stroke-linejoin:miter;stroke-miterlimit:4;stroke-dasharray:none;stroke-opacity:1"
           id="path1174" /></g></g></g><g
     id="g1176"
     transform="matrix(1.25,0,0,-1.25,-259.59359,866.2507)"><g
       id="g1178"
       clip-path="url(#clipPath1180)"><g
         id="g1184"
         transform="matrix(0.7603574,0,0,0.7603574,359.4334,414.5668)"><text
           transform="scale(1,-1)"
           style="font-variant:normal;font-size:15.08917046px;font-family:'Good OT';-inkscape-font-specification:GoodOT-News;writing-mode:lr-tb;fill:#000000;fill-opacity:1;fill-rule:nonzero;stroke:none"
           id="text1186"><tspan
             x="0 7.3635149 10.90947 15.919074 19.555565 26.436226 29.952002 37.043911 42.34021 49.296318 55.754482 63.253799 66.769577 74.917732 82.190712 88.467804 92.013756 97.023361 100.56932 107.8423"
             y="0"
             id="tspan1188">Title Track Position</tspan></text>
</g></g></g><g
     id="g1190"
     transform="matrix(1.25,0,0,-1.25,-259.59359,866.2507)"><g
       id="g1192"
       clip-path="url(#clipPath1194)"><g
         id="g1198"
         transform="matrix(0.7603574,0,0,0.7603574,270.6391,433.6326)"><text
           transform="scale(1,-1)"
           style="font-variant:normal;font-size:13.71743011px;font-family:'Good OT';-inkscape-font-specification:GoodOT-News;writing-mode:lr-tb;fill:#000000;fill-opacity:1;fill-rule:nonzero;stroke:none"
           id="text1200"><tspan
             x="0"
             y="0"
             id="tspan1202">0</tspan></text>
</g></g></g><g
     id="g1204"
     transform="matrix(1.25,0,0,-1.25,-259.59359,866.2507)"><g
       id="g1206"
       clip-path="url(#clipPath1208)"><g
         id="g1212"
         transform="matrix(0.7603574,0,0,0.7603574,284.6125,433.6326)"><text
           transform="scale(1,-1)"
           style="font-variant:normal;font-size:13.71743011px;font-family:'Good OT';-inkscape-font-specification:GoodOT-News;writing-mode:lr-tb;fill:#000000;fill-opacity:1;fill-rule:nonzero;stroke:none"
           id="text1214"><tspan
             x="0"
             y="0"
             id="tspan1216">1</tspan></text>
</g></g></g><g
     id="g1218"
     transform="matrix(1.25,0,0,-1.25,-259.59359,866.2507)"><g
       id="g1220"
       clip-path="url(#clipPath1222)"><g
         id="g1226"
         transform="matrix(0.7603574,0,0,0.7603574,296.7136,433.6326)"><text
           transform="scale(1,-1)"
           style="font-variant:normal;font-size:13.71743011px;font-family:'Good OT';-inkscape-font-specification:GoodOT-News;writing-mode:lr-tb;fill:#000000;fill-opacity:1;fill-rule:nonzero;stroke:none"
           id="text1228"><tspan
             x="0"
             y="0"
             id="tspan1230">2</tspan></text>
</g></g></g><g
     id="g1232"
     transform="matrix(1.25,0,0,-1.25,-259.59359,866.2507)"><g
       id="g1234"
       clip-path="url(#clipPath1236)"><g
         id="g1240"
         transform="matrix(0.7603574,0,0,0.7603574,309.7691,433.6326)"><text
           transform="scale(1,-1)"
           style="font-variant:normal;font-size:13.71743011px;font-family:'Good OT';-inkscape-font-specification:GoodOT-News;writing-mode:lr-tb;fill:#000000;fill-opacity:1;fill-rule:nonzero;stroke:none"
           id="text1242"><tspan
             x="0"
             y="0"
             id="tspan1244">3</tspan></text>
</g></g></g><g
     id="g1246"
     transform="matrix(1.25,0,0,-1.25,-259.59359,866.2507)"><g
       id="g1248"
       clip-path="url(#clipPath1250)"><g
         id="g1254"
         transform="matrix(0.7603574,0,0,0.7603574,322.7412,433.6326)"><text
           transform="scale(1,-1)"
           style="font-variant:normal;font-size:13.71743011px;font-family:'Good OT';-inkscape-font-specification:GoodOT-News;writing-mode:lr-tb;fill:#000000;fill-opacity:1;fill-rule:nonzero;stroke:none"
           id="text1256"><tspan
             x="0"
             y="0"
             id="tspan1258">4</tspan></text>
</g></g></g><g
     id="g1260"
     transform="matrix(1.25,0,0,-1.25,-259.59359,866.2507)"><g
       id="g1262"
       clip-path="url(#clipPath1264)"><g
         id="g1268"
         transform="matrix(0.7603574,0,0,0.7603574,335.7028,433.6326)"><text
           transform="scale(1,-1)"
           style="font-variant:normal;font-size:13.71743011px;font-family:'Good OT';-inkscape-font-specification:GoodOT-News;writing-mode:lr-tb;fill:#000000;fill-opacity:1;fill-rule:nonzero;stroke:none"
           id="text1270"><tspan
             x="0"
             y="0"
             id="tspan1272">5</tspan></text>
</g></g></g><g
     id="g1274"
     transform="matrix(1.25,0,0,-1.25,-259.59359,866.2507)"><g
       id="g1276"
       clip-path="url(#clipPath1278)"><g
         id="g1282"
         transform="matrix(0.7603574,0,0,0.7603574,348.628,433.6326)"><text
           transform="scale(1,-1)"
           style="font-variant:normal;font-size:13.71743011px;font-family:'Good OT';-inkscape-font-specification:GoodOT-News;writing-mode:lr-tb;fill:#000000;fill-opacity:1;fill-rule:nonzero;stroke:none"
           id="text1284"><tspan
             x="0"
             y="0"
             id="tspan1286">6</tspan></text>
</g></g></g><g
     id="g1288"
     transform="matrix(1.25,0,0,-1.25,-259.59359,866.2507)"><g
       id="g1290"
       clip-path="url(#clipPath1292)"><g
         id="g1296"
         transform="matrix(0.7603574,0,0,0.7603574,361.8764,433.6326)"><text
           transform="scale(1,-1)"
           style="font-variant:normal;font-size:13.71743011px;font-family:'Good OT';-inkscape-font-specification:GoodOT-News;writing-mode:lr-tb;fill:#000000;fill-opacity:1;fill-rule:nonzero;stroke:none"
           id="text1298"><tspan
             x="0"
             y="0"
             id="tspan1300">7</tspan></text>
</g></g></g><g
     id="g1302"
     transform="matrix(1.25,0,0,-1.25,-259.59359,866.2507)"><g
       id="g1304"
       clip-path="url(#clipPath1306)"><g
         id="g1310"
         transform="matrix(0.7603574,0,0,0.7603574,374.5252,433.6326)"><text
           transform="scale(1,-1)"
           style="font-variant:normal;font-size:13.71743011px;font-family:'Good OT';-inkscape-font-specification:GoodOT-News;writing-mode:lr-tb;fill:#000000;fill-opacity:1;fill-rule:nonzero;stroke:none"
           id="text1312"><tspan
             x="0"
             y="0"
             id="tspan1314">8</tspan></text>
</g></g></g><g
     id="g1316"
     transform="matrix(1.25,0,0,-1.25,-259.59359,866.2507)"><g
       id="g1318"
       clip-path="url(#clipPath1320)"><g
         id="g1324"
         transform="matrix(0.7603574,0,0,0.7603574,387.5546,433.6326)"><text
           transform="scale(1,-1)"
           style="font-variant:normal;font-size:13.71743011px;font-family:'Good OT';-inkscape-font-specification:GoodOT-News;writing-mode:lr-tb;fill:#000000;fill-opacity:1;fill-rule:nonzero;stroke:none"
           id="text1326"><tspan
             x="0"
             y="0"
             id="tspan1328">9</tspan></text>
</g></g></g><g
     id="g1330"
     transform="matrix(1.25,0,0,-1.25,-259.59359,866.2507)"><g
       id="g1332"
       clip-path="url(#clipPath1334)"><g
         id="g1338"
         transform="matrix(0.7603574,0,0,0.7603574,398.4615,433.6326)"><text
           transform="scale(1,-1)"
           style="font-variant:normal;font-size:13.71743011px;font-family:'Good OT';-inkscape-font-specification:GoodOT-News;writing-mode:lr-tb;fill:#000000;fill-opacity:1;fill-rule:nonzero;stroke:none"
           id="text1340"><tspan
             x="0 5.1303186"
             y="0"
             id="tspan1342">10</tspan></text>
</g></g></g><g
     id="g1344"
     transform="matrix(1.25,0,0,-1.25,-259.59359,866.2507)"><g
       id="g1346"
       clip-path="url(#clipPath1348)"><g
         id="g1352"
         transform="matrix(0.7603574,0,0,0.7603574,412.4348,433.6326)"><text
           transform="scale(1,-1)"
           style="font-variant:normal;font-size:13.71743011px;font-family:'Good OT';-inkscape-font-specification:GoodOT-News;writing-mode:lr-tb;fill:#000000;fill-opacity:1;fill-rule:nonzero;stroke:none"
           id="text1354"><tspan
             x="0 5.1303186"
             y="0"
             id="tspan1356">11</tspan></text>
</g></g></g><g
     id="g1358"
     transform="matrix(1.25,0,0,-1.25,-259.59359,866.2507)"><g
       id="g1360"
       clip-path="url(#clipPath1362)"><g
         id="g1366"
         transform="matrix(0.7603574,0,0,0.7603574,424.536,433.6326)"><text
           transform="scale(1,-1)"
           style="font-variant:normal;font-size:13.71743011px;font-family:'Good OT';-inkscape-font-specification:GoodOT-News;writing-mode:lr-tb;fill:#000000;fill-opacity:1;fill-rule:nonzero;stroke:none"
           id="text1368"><tspan
             x="0 5.1303186"
             y="0"
             id="tspan1370">12</tspan></text>
</g></g></g><g
     id="g1372"
     transform="matrix(1.25,0,0,-1.25,-259.59359,866.2507)"><g
       id="g1374"
       clip-path="url(#clipPath1376)"><g
         id="g1380"
         transform="matrix(0.7603574,0,0,0.7603574,437.5915,433.6326)"><text
           transform="scale(1,-1)"
           style="font-variant:normal;font-size:13.71743011px;font-family:'Good OT';-inkscape-font-specification:GoodOT-News;writing-mode:lr-tb;fill:#000000;fill-opacity:1;fill-rule:nonzero;stroke:none"
           id="text1382"><tspan
             x="0 5.1303186"
             y="0"
             id="tspan1384">13</tspan></text>
</g></g></g><g
     id="g1386"
     transform="matrix(1.25,0,0,-1.25,-259.59359,866.2507)"><g
       id="g1388"
       clip-path="url(#clipPath1390)"><g
         id="g1394"
         transform="matrix(0.7603574,0,0,0.7603574,450.5635,433.6326)"><text
           transform="scale(1,-1)"
           style="font-variant:normal;font-size:13.71743011px;font-family:'Good OT';-inkscape-font-specification:GoodOT-News;writing-mode:lr-tb;fill:#000000;fill-opacity:1;fill-rule:nonzero;stroke:none"
           id="text1396"><tspan
             x="0 5.1303186"
             y="0"
             id="tspan1398">14</tspan></text>
</g></g></g><g
     id="g1400"
     transform="matrix(1.25,0,0,-1.25,-259.59359,866.2507)"><g
       id="g1402"
       clip-path="url(#clipPath1404)"><g
         id="g1408"
         transform="matrix(0.7603574,0,0,0.7603574,463.5252,433.6326)"><text
           transform="scale(1,-1)"
           style="font-variant:normal;font-size:13.71743011px;font-family:'Good OT';-inkscape-font-specification:GoodOT-News;writing-mode:lr-tb;fill:#000000;fill-opacity:1;fill-rule:nonzero;stroke:none"
           id="text1410"><tspan
             x="0 5.1303186"
             y="0"
             id="tspan1412">15</tspan></text>
</g></g></g><g
     id="g1414"
     transform="matrix(1.25,0,0,-1.25,-259.59359,866.2507)"><g
       id="g1416"
       clip-path="url(#clipPath1418)"><g
         id="g1422"
         transform="matrix(0.7603574,0,0,0.7603574,476.4503,433.6326)"><text
           transform="scale(1,-1)"
           style="font-variant:normal;font-size:13.71743011px;font-family:'Good OT';-inkscape-font-specification:GoodOT-News;writing-mode:lr-tb;fill:#000000;fill-opacity:1;fill-rule:nonzero;stroke:none"
           id="text1424"><tspan
             x="0 5.1303186"
             y="0"
             id="tspan1426">16</tspan></text>
</g></g></g><g
     id="g1428"
     transform="matrix(1.25,0,0,-1.25,-259.59359,866.2507)"><g
       id="g1430"
       clip-path="url(#clipPath1432)"><g
         id="g1436"
         transform="matrix(0.7603574,0,0,0.7603574,489.6988,433.6326)"><text
           transform="scale(1,-1)"
           style="font-variant:normal;font-size:13.71743011px;font-family:'Good OT';-inkscape-font-specification:GoodOT-News;writing-mode:lr-tb;fill:#000000;fill-opacity:1;fill-rule:nonzero;stroke:none"
           id="text1438"><tspan
             x="0 5.1303186"
             y="0"
             id="tspan1440">17</tspan></text>
</g></g></g><g
     id="g1442"
     transform="matrix(1.25,0,0,-1.25,-259.59359,866.2507)"><g
       id="g1444"
       clip-path="url(#clipPath1446)"><g
         id="g1450"
         transform="matrix(0.7603574,0,0,0.7603574,502.3475,433.6326)"><text
           transform="scale(1,-1)"
           style="font-variant:normal;font-size:13.71743011px;font-family:'Good OT';-inkscape-font-specification:GoodOT-News;writing-mode:lr-tb;fill:#000000;fill-opacity:1;fill-rule:nonzero;stroke:none"
           id="text1452"><tspan
             x="0 5.1303186"
             y="0"
             id="tspan1454">18</tspan></text>
</g></g></g><g
     id="g1456"
     transform="matrix(1.25,0,0,-1.25,-259.59359,866.2507)"><g
       id="g1458"
       clip-path="url(#clipPath1460)"><g
         id="g1464"
         transform="matrix(0.7603574,0,0,0.7603574,515.3769,433.6326)"><text
           transform="scale(1,-1)"
           style="font-variant:normal;font-size:13.71743011px;font-family:'Good OT';-inkscape-font-specification:GoodOT-News;writing-mode:lr-tb;fill:#000000;fill-opacity:1;fill-rule:nonzero;stroke:none"
           id="text1466"><tspan
             x="0 5.1303186"
             y="0"
             id="tspan1468">19</tspan></text>
</g></g></g><g
     id="g1470"
     transform="matrix(1.25,0,0,-1.25,-259.59359,866.2507)"><g
       id="g1472"
       clip-path="url(#clipPath1474)"><g
         id="g1478"
         transform="matrix(0.7603574,0,0,0.7603574,527.3581,433.6326)"><text
           transform="scale(1,-1)"
           style="font-variant:normal;font-size:13.71743011px;font-family:'Good OT';-inkscape-font-specification:GoodOT-News;writing-mode:lr-tb;fill:#000000;fill-opacity:1;fill-rule:nonzero;stroke:none"
           id="text1480"><tspan
             x="0 7.4348469"
             y="0"
             id="tspan1482">20</tspan></text>
</g></g></g><g
     id="g1484"
     style="fill:#000000"
     transform="matrix(1.25,0,0,-1.25,-259.59359,866.2507)"><g
       id="g1486"
       clip-path="url(#clipPath1488)"
       style="fill:#000000"><path
         inkscape:connector-curvature="0"
         d="m 287,668 6,0 0,-219 -6,0 0,219 z"
         style="fill:#000000;fill-opacity:1;fill-rule:nonzero;stroke:none"
         id="path1492" /></g></g><g
     id="g1494"
     style="fill:#000000"
     transform="matrix(1.25,0,0,-1.25,-259.59359,866.2507)"><g
       id="g1496"
       clip-path="url(#clipPath1498)"
       style="fill:#000000"><path
         inkscape:connector-curvature="0"
         d="m 300,524 6,0 0,-75 -6,0 0,75 z"
         style="fill:#000000;fill-opacity:1;fill-rule:nonzero;stroke:none"
         id="path1502" /></g></g><g
     id="g1504"
     style="fill:#000000"
     transform="matrix(1.25,0,0,-1.25,-259.59359,866.2507)"><g
       id="g1506"
       clip-path="url(#clipPath1508)"
       style="fill:#000000"><path
         inkscape:connector-curvature="0"
         d="m 313,504 6,0 0,-55 -6,0 0,55 z"
         style="fill:#000000;fill-opacity:1;fill-rule:nonzero;stroke:none"
         id="path1512" /></g></g><g
     id="g1514"
     style="fill:#000000"
     transform="matrix(1.25,0,0,-1.25,-259.59359,866.2507)"><g
       id="g1516"
       clip-path="url(#clipPath1518)"
       style="fill:#000000"><path
         inkscape:connector-curvature="0"
         d="m 326,496 6,0 0,-47 -6,0 0,47 z"
         style="fill:#000000;fill-opacity:1;fill-rule:nonzero;stroke:none"
         id="path1522" /></g></g><g
     id="g1524"
     style="fill:#000000"
     transform="matrix(1.25,0,0,-1.25,-259.59359,866.2507)"><g
       id="g1526"
       clip-path="url(#clipPath1528)"
       style="fill:#000000"><path
         inkscape:connector-curvature="0"
         d="m 338,489 7,0 0,-40 -7,0 0,40 z"
         style="fill:#000000;fill-opacity:1;fill-rule:nonzero;stroke:none"
         id="path1532" /></g></g><g
     id="g1534"
     style="fill:#000000"
     transform="matrix(1.25,0,0,-1.25,-259.59359,866.2507)"><g
       id="g1536"
       clip-path="url(#clipPath1538)"
       style="fill:#000000"><path
         inkscape:connector-curvature="0"
         d="m 351,486 7,0 0,-37 -7,0 0,37 z"
         style="fill:#000000;fill-opacity:1;fill-rule:nonzero;stroke:none"
         id="path1542" /></g></g><g
     id="g1544"
     style="fill:#000000"
     transform="matrix(1.25,0,0,-1.25,-259.59359,866.2507)"><g
       id="g1546"
       clip-path="url(#clipPath1548)"
       style="fill:#000000"><path
         inkscape:connector-curvature="0"
         d="m 364,480 7,0 0,-31 -7,0 0,31 z"
         style="fill:#000000;fill-opacity:1;fill-rule:nonzero;stroke:none"
         id="path1552" /></g></g><g
     id="g1554"
     style="fill:#000000"
     transform="matrix(1.25,0,0,-1.25,-259.59359,866.2507)"><g
       id="g1556"
       clip-path="url(#clipPath1558)"
       style="fill:#000000"><path
         inkscape:connector-curvature="0"
         d="m 377,475 7,0 0,-26 -7,0 0,26 z"
         style="fill:#000000;fill-opacity:1;fill-rule:nonzero;stroke:none"
         id="path1562" /></g></g><g
     id="g1564"
     style="fill:#000000"
     transform="matrix(1.25,0,0,-1.25,-259.59359,866.2507)"><g
       id="g1566"
       clip-path="url(#clipPath1568)"
       style="fill:#000000"><path
         inkscape:connector-curvature="0"
         d="m 390,471 7,0 0,-22 -7,0 0,22 z"
         style="fill:#000000;fill-opacity:1;fill-rule:nonzero;stroke:none"
         id="path1572" /></g></g><g
     id="g1574"
     style="fill:#000000"
     transform="matrix(1.25,0,0,-1.25,-259.59359,866.2507)"><g
       id="g1576"
       clip-path="url(#clipPath1578)"
       style="fill:#000000"><path
         inkscape:connector-curvature="0"
         d="m 403,471 7,0 0,-22 -7,0 0,22 z"
         style="fill:#000000;fill-opacity:1;fill-rule:nonzero;stroke:none"
         id="path1582" /></g></g><g
     id="g1584"
     style="fill:#000000"
     transform="matrix(1.25,0,0,-1.25,-259.59359,866.2507)"><g
       id="g1586"
       clip-path="url(#clipPath1588)"
       style="fill:#000000"><path
         inkscape:connector-curvature="0"
         d="m 416,465 7,0 0,-16 -7,0 0,16 z"
         style="fill:#000000;fill-opacity:1;fill-rule:nonzero;stroke:none"
         id="path1592" /></g></g><g
     id="g1594"
     style="fill:#000000"
     transform="matrix(1.25,0,0,-1.25,-259.59359,866.2507)"><g
       id="g1596"
       clip-path="url(#clipPath1598)"
       style="fill:#000000"><path
         inkscape:connector-curvature="0"
         d="m 429,462 7,0 0,-13 -7,0 0,13 z"
         style="fill:#000000;fill-opacity:1;fill-rule:nonzero;stroke:none"
         id="path1602" /></g></g><g
     id="g1604"
     style="fill:#000000"
     transform="matrix(1.25,0,0,-1.25,-259.59359,866.2507)"><g
       id="g1606"
       clip-path="url(#clipPath1608)"
       style="fill:#000000"><path
         inkscape:connector-curvature="0"
         d="m 442,457 7,0 0,-8 -7,0 0,8 z"
         style="fill:#000000;fill-opacity:1;fill-rule:nonzero;stroke:none"
         id="path1612" /></g></g><g
     id="g1614"
     style="fill:#000000"
     transform="matrix(1.25,0,0,-1.25,-259.59359,866.2507)"><g
       id="g1616"
       clip-path="url(#clipPath1618)"
       style="fill:#000000"><path
         inkscape:connector-curvature="0"
         d="m 455,454 7,0 0,-5 -7,0 0,5 z"
         style="fill:#000000;fill-opacity:1;fill-rule:nonzero;stroke:none"
         id="path1622" /></g></g><g
     id="g1624"
     style="fill:#000000"
     transform="matrix(1.25,0,0,-1.25,-259.59359,866.2507)"><g
       id="g1626"
       clip-path="url(#clipPath1628)"
       style="fill:#000000"><path
         inkscape:connector-curvature="0"
         d="m 468,452 7,0 0,-3 -7,0 0,3 z"
         style="fill:#000000;fill-opacity:1;fill-rule:nonzero;stroke:none"
         id="path1632" /></g></g><g
     id="g1634"
     style="fill:#000000"
     transform="matrix(1.25,0,0,-1.25,-259.59359,866.2507)"><g
       id="g1636"
       clip-path="url(#clipPath1638)"
       style="fill:#000000"><path
         inkscape:connector-curvature="0"
         d="m 481,451 7,0 0,-2 -7,0 0,2 z"
         style="fill:#000000;fill-opacity:1;fill-rule:nonzero;stroke:none"
         id="path1642" /></g></g><g
     id="g1644"
     style="fill:#000000"
     transform="matrix(1.25,0,0,-1.25,-259.59359,866.2507)"><g
       id="g1646"
       clip-path="url(#clipPath1648)"
       style="fill:#000000"><path
         inkscape:connector-curvature="0"
         d="m 494,451 7,0 0,-2 -7,0 0,2 z"
         style="fill:#000000;fill-opacity:1;fill-rule:nonzero;stroke:none"
         id="path1652" /></g></g><g
     id="g1654"
     style="fill:#000000"
     transform="matrix(1.25,0,0,-1.25,-259.59359,866.2507)"><g
       id="g1656"
       clip-path="url(#clipPath1658)"
       style="fill:#000000"><path
         inkscape:connector-curvature="0"
         d="m 507,450 7,0 0,-1 -7,0 0,1 z"
         style="fill:#000000;fill-opacity:1;fill-rule:nonzero;stroke:none"
         id="path1662" /></g></g><g
     id="g1664"
     style="fill:#000000"
     transform="matrix(1.25,0,0,-1.25,-259.59359,866.2507)"><g
       id="g1666"
       clip-path="url(#clipPath1668)"
       style="fill:#000000"><path
         inkscape:connector-curvature="0"
         d="m 520,450 7,0 0,-1 -7,0 0,1 z"
         style="fill:#000000;fill-opacity:1;fill-rule:nonzero;stroke:none"
         id="path1672" /></g></g><g
     id="g1674"
     style="fill:#000000"
     transform="matrix(1.25,0,0,-1.25,-259.59359,866.2507)"><g
       id="g1676"
       clip-path="url(#clipPath1678)"
       style="fill:#000000"><path
         inkscape:connector-curvature="0"
         d="m 533,450 7,0 0,-1 -7,0 0,1 z"
         style="fill:#000000;fill-opacity:1;fill-rule:nonzero;stroke:none"
         id="path1682" /></g></g></svg>